HIERARCHY
ROOT Hips
{
	OFFSET -0.150001 87.211151 2.220142
	CHANNELS 6 Xposition Yposition Zposition Xrotation Yrotation Zrotation
	JOINT Pelvis
	{
		OFFSET 0.000000 0.000000 0.000000
		CHANNELS 3 Xrotation Yrotation Zrotation
		JOINT LeftUpLeg
		{
			OFFSET 12.016979 -9.376381 -2.439418
			CHANNELS 3 Xrotation Yrotation Zrotation
			JOINT LeftLeg
			{
				OFFSET -0.817380 -32.836784 2.110571
				CHANNELS 3 Xrotation Yrotation Zrotation
				JOINT LeftFoot
				{
					OFFSET -0.783454 -32.055588 -0.570427
					CHANNELS 3 Xrotation Yrotation Zrotation
					JOINT LeftToeBase
					{
						OFFSET 0.728348 -11.045863 13.180651
						CHANNELS 3 Xrotation Yrotation Zrotation
						End Site
						{
							OFFSET 0.000000 17.212528 0.000000
						}
					}
				}
				JOINT LeftPantLeg
				{
					OFFSET -0.409309 -16.703976 -3.143619
					CHANNELS 3 Xrotation Yrotation Zrotation
					End Site
					{
						OFFSET 0.000000 24.536182 0.000000
					}
				}
			}
			JOINT Left_Butt
			{
				OFFSET -6.595482 1.489731 -3.183693
				CHANNELS 3 Xrotation Yrotation Zrotation
				End Site
				{
					OFFSET 0.000000 20.194176 0.000000
				}
			}
		}
		JOINT RightUpLeg
		{
			OFFSET -11.716976 -9.376381 -2.439418
			CHANNELS 3 Xrotation Yrotation Zrotation
			JOINT RightLeg
			{
				OFFSET 0.806788 -32.837044 2.110606
				CHANNELS 3 Xrotation Yrotation Zrotation
				JOINT RightFoot
				{
					OFFSET 0.794045 -32.055328 -0.570462
					CHANNELS 3 Xrotation Yrotation Zrotation
					JOINT RightToeBase
					{
						OFFSET -0.728348 -11.045862 13.180651
						CHANNELS 3 Xrotation Yrotation Zrotation
						End Site
						{
							OFFSET 0.000000 17.212528 0.000000
						}
					}
				}
				JOINT RightPantLeg
				{
					OFFSET 0.420190 -16.703716 -3.143653
					CHANNELS 3 Xrotation Yrotation Zrotation
					End Site
					{
						OFFSET 0.000000 24.536198 0.000000
					}
				}
			}
			JOINT Right_Butt
			{
				OFFSET 6.595978 1.489731 -3.183693
				CHANNELS 3 Xrotation Yrotation Zrotation
				End Site
				{
					OFFSET 0.000000 20.194397 0.000000
				}
			}
		}
	}
	JOINT Spine
	{
		OFFSET -0.062379 7.848404 3.918342
		CHANNELS 3 Xrotation Yrotation Zrotation
		JOINT Spine1
		{
			OFFSET -0.072775 11.422256 0.713384
			CHANNELS 3 Xrotation Yrotation Zrotation
			JOINT Spine2
			{
				OFFSET -0.083171 13.054008 -1.931563
				CHANNELS 3 Xrotation Yrotation Zrotation
				JOINT Neck
				{
					OFFSET -0.092225 14.121773 -5.138807
					CHANNELS 3 Xrotation Yrotation Zrotation
					JOINT Head
					{
						OFFSET 0.000171 10.447388 -0.842032
						CHANNELS 3 Xrotation Yrotation Zrotation
						JOINT Visor
						{
							OFFSET 0.457139 25.671173 16.550411
							CHANNELS 3 Xrotation Yrotation Zrotation
							End Site
							{
								OFFSET 0.000000 26.061493 0.000000
							}
						}
						JOINT HairMidA
						{
							OFFSET 0.459357 31.585358 8.437352
							CHANNELS 3 Xrotation Yrotation Zrotation
							End Site
							{
								OFFSET 0.000000 26.061493 0.000000
							}
						}
						JOINT HairMidB
						{
							OFFSET 0.464023 33.309235 -8.389654
							CHANNELS 3 Xrotation Yrotation Zrotation
							End Site
							{
								OFFSET 0.000000 26.061493 0.000000
							}
						}
						JOINT HairMidC
						{
							OFFSET 0.466553 27.991165 -17.375053
							CHANNELS 3 Xrotation Yrotation Zrotation
							End Site
							{
								OFFSET 0.000000 26.061493 0.000000
							}
						}
						JOINT HairMidD
						{
							OFFSET 0.467668 17.888062 -21.169472
							CHANNELS 3 Xrotation Yrotation Zrotation
							End Site
							{
								OFFSET 0.000000 26.061493 0.000000
							}
						}
						JOINT HairMidE
						{
							OFFSET 5.325659 3.514648 -14.369741
							CHANNELS 3 Xrotation Yrotation Zrotation
							End Site
							{
								OFFSET 0.000000 26.061493 0.000000
							}
						}
						JOINT HairMidF
						{
							OFFSET -4.394134 3.514587 -14.372442
							CHANNELS 3 Xrotation Yrotation Zrotation
							End Site
							{
								OFFSET 0.000000 26.061493 0.000000
							}
						}
						JOINT HairLeftA
						{
							OFFSET 15.319869 25.746521 2.623347
							CHANNELS 3 Xrotation Yrotation Zrotation
							End Site
							{
								OFFSET 0.000000 26.061493 0.000000
							}
						}
						JOINT HairLeftB
						{
							OFFSET 12.619466 29.289368 -8.731475
							CHANNELS 3 Xrotation Yrotation Zrotation
							End Site
							{
								OFFSET 0.000000 26.061493 0.000000
							}
						}
						JOINT HairLeftC
						{
							OFFSET 15.714844 15.959915 2.909834
							CHANNELS 3 Xrotation Yrotation Zrotation
							End Site
							{
								OFFSET 0.000000 26.061493 0.000000
							}
						}
						JOINT HairLeftD
						{
							OFFSET 16.101723 18.437363 -7.553188
							CHANNELS 3 Xrotation Yrotation Zrotation
							End Site
							{
								OFFSET 0.000000 26.061493 0.000000
							}
						}
						JOINT HairLeftE
						{
							OFFSET 9.731930 17.914993 -18.316845
							CHANNELS 3 Xrotation Yrotation Zrotation
							End Site
							{
								OFFSET 0.000000 26.061493 0.000000
							}
						}
						JOINT HairLeftF
						{
							OFFSET 11.204299 4.953644 -9.668147
							CHANNELS 3 Xrotation Yrotation Zrotation
							End Site
							{
								OFFSET 0.000000 26.061493 0.000000
							}
						}
						JOINT HairRightA
						{
							OFFSET -14.397850 25.746338 2.615088
							CHANNELS 3 Xrotation Yrotation Zrotation
							End Site
							{
								OFFSET 0.000000 26.061493 0.000000
							}
						}
						JOINT HairRightB
						{
							OFFSET -11.691177 29.289230 -8.738231
							CHANNELS 3 Xrotation Yrotation Zrotation
							End Site
							{
								OFFSET 0.000000 26.061493 0.000000
							}
						}
						JOINT HairRightC
						{
							OFFSET -14.792866 15.959732 2.901356
							CHANNELS 3 Xrotation Yrotation Zrotation
							End Site
							{
								OFFSET 0.000000 26.061493 0.000000
							}
						}
						JOINT HairRightD
						{
							OFFSET -15.173956 18.437164 -7.561880
							CHANNELS 3 Xrotation Yrotation Zrotation
							End Site
							{
								OFFSET 0.000000 26.061493 0.000000
							}
						}
						JOINT HairRightE
						{
							OFFSET -8.798178 17.914886 -18.321995
							CHANNELS 3 Xrotation Yrotation Zrotation
							End Site
							{
								OFFSET 0.000000 26.061493 0.000000
							}
						}
						JOINT HairRightF
						{
							OFFSET -10.275196 4.953506 -9.674116
							CHANNELS 3 Xrotation Yrotation Zrotation
							End Site
							{
								OFFSET 0.000000 26.061493 0.000000
							}
						}
					}
				}
				JOINT LeftShoulder
				{
					OFFSET 5.133502 7.341248 -1.867558
					CHANNELS 3 Xrotation Yrotation Zrotation
					JOINT LeftArm
					{
						OFFSET 8.073057 0.933060 -2.176591
						CHANNELS 3 Xrotation Yrotation Zrotation
						JOINT LeftForeArm
						{
							OFFSET 31.170431 -0.110054 -2.516341
							CHANNELS 3 Xrotation Yrotation Zrotation
							JOINT LeftHand
							{
								OFFSET 31.758984 -0.038307 -0.873058
								CHANNELS 3 Xrotation Yrotation Zrotation
								JOINT LeftHandThumb1
								{
									OFFSET 3.014229 -1.208282 4.882164
									CHANNELS 3 Xrotation Yrotation Zrotation
									JOINT LeftHandThumb2
									{
										OFFSET 2.436516 -1.204407 1.408011
										CHANNELS 3 Xrotation Yrotation Zrotation
										JOINT LeftHandThumb3
										{
											OFFSET 2.254616 -1.535309 0.973410
											CHANNELS 3 Xrotation Yrotation Zrotation
											End Site
											{
												OFFSET 0.000000 2.896202 0.000000
											}
										}
									}
								}
								JOINT LeftHandIndex1
								{
									OFFSET 8.516617 0.916695 3.193901
									CHANNELS 3 Xrotation Yrotation Zrotation
									JOINT LeftHandIndex2
									{
										OFFSET 3.305534 -0.513794 0.148831
										CHANNELS 3 Xrotation Yrotation Zrotation
										JOINT LeftHandIndex3
										{
											OFFSET 3.149483 -1.032883 -0.004956
											CHANNELS 3 Xrotation Yrotation Zrotation
											End Site
											{
												OFFSET 0.000000 3.314529 0.000000
											}
										}
									}
								}
								JOINT LeftHandMiddle1
								{
									OFFSET 8.085388 0.797127 0.009041
									CHANNELS 3 Xrotation Yrotation Zrotation
									JOINT LeftHandMiddle2
									{
										OFFSET 4.055710 -0.878586 -0.370356
										CHANNELS 3 Xrotation Yrotation Zrotation
										JOINT LeftHandMiddle3
										{
											OFFSET 2.822098 -1.032654 -0.279992
											CHANNELS 3 Xrotation Yrotation Zrotation
											End Site
											{
												OFFSET 0.000000 3.018112 0.000000
											}
										}
									}
								}
								JOINT LeftHandRing1
								{
									OFFSET 8.600105 0.164856 -2.793547
									CHANNELS 3 Xrotation Yrotation Zrotation
									JOINT LeftHandRing2
									{
										OFFSET 3.528015 -0.934578 -0.396605
										CHANNELS 3 Xrotation Yrotation Zrotation
										JOINT LeftHandRing3
										{
											OFFSET 2.593292 -0.815781 -0.236382
											CHANNELS 3 Xrotation Yrotation Zrotation
											End Site
											{
												OFFSET 0.000000 2.728836 0.000000
											}
										}
									}
								}
								JOINT LeftHandPinky1
								{
									OFFSET 8.001732 -1.051186 -4.918592
									CHANNELS 3 Xrotation Yrotation Zrotation
									JOINT LeftHandPinky2
									{
										OFFSET 2.860458 -0.755989 -0.813781
										CHANNELS 3 Xrotation Yrotation Zrotation
										JOINT LeftHandPinky3
										{
											OFFSET 2.324455 -0.524551 -0.249960
											CHANNELS 3 Xrotation Yrotation Zrotation
											End Site
											{
												OFFSET 0.000000 2.395981 0.000000
											}
										}
									}
								}
							}
							JOINT LeftSleeve
							{
								OFFSET 19.689919 -0.223915 -0.065017
								CHANNELS 3 Xrotation Yrotation Zrotation
								End Site
								{
									OFFSET 0.000000 25.731148 0.000000
								}
							}
						}
					}
				}
				JOINT RightShoulder
				{
					OFFSET -4.395899 7.341194 -1.870206
					CHANNELS 3 Xrotation Yrotation Zrotation
					JOINT RightArm
					{
						OFFSET -8.071857 0.932961 -2.181078
						CHANNELS 3 Xrotation Yrotation Zrotation
						JOINT RightForeArm
						{
							OFFSET -31.169025 -0.110435 -2.533666
							CHANNELS 3 Xrotation Yrotation Zrotation
							JOINT RightHand
							{
								OFFSET -31.758495 -0.038696 -0.890710
								CHANNELS 3 Xrotation Yrotation Zrotation
								JOINT RightHandThumb1
								{
									OFFSET -3.016930 -1.208313 4.880487
									CHANNELS 3 Xrotation Yrotation Zrotation
									JOINT RightHandThumb2
									{
										OFFSET -2.437279 -1.204437 1.406657
										CHANNELS 3 Xrotation Yrotation Zrotation
										JOINT RightHandThumb3
										{
											OFFSET -2.255142 -1.535332 0.972157
											CHANNELS 3 Xrotation Yrotation Zrotation
											End Site
											{
												OFFSET 0.000000 2.896202 0.000000
											}
										}
									}
								}
								JOINT RightHandIndex1
								{
									OFFSET -8.518402 0.916595 3.189166
									CHANNELS 3 Xrotation Yrotation Zrotation
									JOINT RightHandIndex2
									{
										OFFSET -3.305611 -0.513840 0.146994
										CHANNELS 3 Xrotation Yrotation Zrotation
										JOINT RightHandIndex3
										{
											OFFSET -3.149467 -1.032913 -0.006706
											CHANNELS 3 Xrotation Yrotation Zrotation
											End Site
											{
												OFFSET 0.000000 3.314529 0.000000
											}
										}
									}
								}
								JOINT RightHandMiddle1
								{
									OFFSET -8.085396 0.797043 0.004547
									CHANNELS 3 Xrotation Yrotation Zrotation
									JOINT RightHandMiddle2
									{
										OFFSET -4.055504 -0.878647 -0.372611
										CHANNELS 3 Xrotation Yrotation Zrotation
										JOINT RightHandMiddle3
										{
											OFFSET -2.821922 -1.032684 -0.281561
											CHANNELS 3 Xrotation Yrotation Zrotation
											End Site
											{
												OFFSET 0.000000 3.018112 0.000000
											}
										}
									}
								}
								JOINT RightHandRing1
								{
									OFFSET -8.598557 0.164757 -2.798328
									CHANNELS 3 Xrotation Yrotation Zrotation
									JOINT RightHandRing2
									{
										OFFSET -3.527779 -0.934624 -0.398566
										CHANNELS 3 Xrotation Yrotation Zrotation
										JOINT RightHandRing3
										{
											OFFSET -2.593147 -0.815811 -0.237823
											CHANNELS 3 Xrotation Yrotation Zrotation
											End Site
											{
												OFFSET 0.000000 2.728836 0.000000
											}
										}
									}
								}
								JOINT RightHandPinky1
								{
									OFFSET -7.998985 -1.051277 -4.923038
									CHANNELS 3 Xrotation Yrotation Zrotation
									JOINT RightHandPinky2
									{
										OFFSET -2.859993 -0.756027 -0.815371
										CHANNELS 3 Xrotation Yrotation Zrotation
										JOINT RightHandPinky3
										{
											OFFSET -2.324310 -0.524582 -0.251251
											CHANNELS 3 Xrotation Yrotation Zrotation
											End Site
											{
												OFFSET 0.000000 2.395981 0.000000
											}
										}
									}
								}
							}
							JOINT RightSleeve
							{
								OFFSET -19.690090 -0.224159 -0.075961
								CHANNELS 3 Xrotation Yrotation Zrotation
								End Site
								{
									OFFSET 0.000000 25.731255 0.000000
								}
							}
						}
					}
				}
				JOINT Hood
				{
					OFFSET 0.369716 14.447853 -5.317849
					CHANNELS 3 Xrotation Yrotation Zrotation
					JOINT Hood1
					{
						OFFSET 0.001672 -5.553833 -5.895097
						CHANNELS 3 Xrotation Yrotation Zrotation
						JOINT Hood2
						{
							OFFSET -0.000161 -8.380455 0.763632
							CHANNELS 3 Xrotation Yrotation Zrotation
							End Site
							{
								OFFSET 0.000000 8.415169 0.000000
							}
						}
					}
				}
				JOINT Left_Breast
				{
					OFFSET 5.682508 3.120148 3.188847
					CHANNELS 3 Xrotation Yrotation Zrotation
					End Site
					{
						OFFSET 0.000000 10.528572 0.000000
					}
				}
				JOINT Right_Breast
				{
					OFFSET -4.947578 3.120087 3.185892
					CHANNELS 3 Xrotation Yrotation Zrotation
					End Site
					{
						OFFSET 0.000000 10.528572 0.000000
					}
				}
				JOINT Whistle
				{
					OFFSET 0.368230 11.471275 0.095403
					CHANNELS 3 Xrotation Yrotation Zrotation
					JOINT Whistle1
					{
						OFFSET -0.002040 -6.349861 7.479819
						CHANNELS 3 Xrotation Yrotation Zrotation
						JOINT Whistle2
						{
							OFFSET -0.001261 -8.217644 4.717561
							CHANNELS 3 Xrotation Yrotation Zrotation
							End Site
							{
								OFFSET 0.000000 9.475494 0.000000
							}
						}
					}
				}
			}
		}
		JOINT Belly
		{
			OFFSET 0.212380 1.592987 3.163679
			CHANNELS 3 Xrotation Yrotation Zrotation
			End Site
			{
				OFFSET 0.000000 7.496605 0.000000
			}
		}
	}
	JOINT FitGrandmaFacialAnim_Joint
	{
		OFFSET 1.280120 -86.211151 -1.082839
		CHANNELS 3 Xrotation Yrotation Zrotation
		End Site
		{
			OFFSET 0.000000 31.666611 0.000000
		}
	}
}
MOTION
Frames: 4
Frame Time: 0.016667
-1.609376 91.025864 5.483081 87.978881 16.201089 5.472918 -0.000000 -6.467572 0.000000 -12.548635 -14.086180 9.526773 25.575836 6.291222 -0.415838 12.971067 -7.105234 -20.641747 -0.000002 -0.000000 0.000000 -0.000001 -0.000000 0.000001 0.000000 0.000001 -0.000002 -6.921867 -55.339306 -16.378944 9.669113 0.543642 0.308844 12.425220 31.632105 22.361167 -0.000000 -0.000001 0.000001 0.000000 0.000002 -0.000000 0.000000 0.000003 0.000000 2.389441 -0.145895 -3.351582 5.204474 12.461944 -7.272586 5.204486 12.461937 -7.272590 -13.925053 -2.201572 -7.202083 1.344835 -28.178000 -3.371393 -0.000001 0.000000 -0.000001 -0.000001 0.000000 -0.000001 -0.000001 0.000000 -0.000001 -0.000001 0.000000 -0.000001 -0.000001 0.000000 -0.000001 -0.000001 0.000000 -0.000001 -0.000001 0.000000 -0.000001 -0.000001 0.000000 -0.000001 -0.000001 0.000000 -0.000001 -0.000001 0.000000 -0.000001 -0.000001 0.000000 -0.000001 -0.000001 0.000000 -0.000001 -0.000001 0.000000 -0.000001 -0.000001 0.000000 -0.000001 -0.000001 0.000000 -0.000001 -0.000001 0.000000 -0.000001 -0.000001 0.000000 -0.000001 -0.000001 0.000000 -0.000001 -0.000001 0.000000 -0.000001 -0.946208 7.997303 -0.501642 13.671179 -46.930421 11.141696 -27.143334 -112.991997 -15.205316 37.240753 31.292669 57.653538 -45.369316 -10.933207 -28.967054 -0.511558 4.631848 10.460571 -0.000001 -0.000003 -0.000003 2.398324 -3.331079 -48.346405 -11.395801 -5.308310 -29.680386 0.000000 -0.000001 0.000000 -9.773690 -10.748586 -53.584968 -12.080629 -4.654335 -31.771503 0.000002 0.000000 0.000000 -8.728385 -7.533056 -45.104373 -13.836812 -6.000154 -58.298779 0.000000 0.000000 -0.000001 -17.004173 -15.629464 -63.716499 -6.101945 -3.605252 -35.795170 0.000001 0.000000 -0.000000 0.000000 0.000001 -0.000000 3.795526 21.519180 -8.253776 -80.985772 27.185823 42.837529 -0.092246 21.859872 0.147137 16.351505 -4.553079 12.184536 -38.854194 9.943044 18.615986 -2.267162 -3.974563 -7.555709 -0.000001 0.000000 -0.000000 1.971002 -0.723371 -31.650233 -1.952634 5.513469 7.706099 0.000001 0.000000 -0.000002 0.589501 -6.537901 -30.333208 -4.977577 4.968421 13.498591 0.000001 -0.000001 -0.000000 -5.789500 -16.636282 -21.246675 -3.711699 5.823304 18.295739 0.000000 -0.000001 0.000001 3.791821 -2.761024 7.049119 -2.715837 0.356663 18.520200 0.000002 0.000000 0.000000 -0.000000 -0.000001 -0.000001 0.000001 -0.000003 0.000001 0.000001 -0.000003 0.000001 0.000001 -0.000003 0.000001 0.000001 -0.000003 0.000001 0.000001 -0.000003 0.000001 0.000001 -0.000003 0.000001 0.000001 -0.000003 0.000001 0.000001 -0.000003 0.000001 0.000000 0.000002 -0.000000 0.000000 -0.000000 0.000000 
-1.593156 91.025597 5.414708 87.946745 16.276419 5.442271 0.000000 -6.467571 -0.000001 -12.427265 -14.006849 9.725805 25.282376 5.500248 -0.448547 12.818919 -6.795258 -21.223850 0.000000 0.000000 0.000000 0.000001 -0.000000 0.000001 0.000001 -0.000000 -0.000000 -6.908070 -55.456000 -16.375923 9.828700 0.556114 0.312747 12.387833 31.580609 22.474425 0.000000 -0.000000 -0.000002 -0.000000 0.000000 0.000000 0.000000 -0.000003 0.000000 2.385967 -0.132903 -3.337229 5.197625 12.488346 -7.248141 5.197646 12.488359 -7.248150 -13.955279 -2.219522 -7.151899 1.354305 -28.234284 -3.403384 -0.000000 0.000000 -0.000001 -0.000000 0.000000 -0.000001 -0.000000 0.000000 -0.000001 -0.000000 0.000000 -0.000001 -0.000000 0.000000 -0.000001 -0.000000 0.000000 -0.000001 -0.000000 0.000000 -0.000001 -0.000000 0.000000 -0.000001 -0.000000 0.000000 -0.000001 -0.000000 0.000000 -0.000001 -0.000000 0.000000 -0.000001 -0.000000 0.000000 -0.000001 -0.000000 0.000000 -0.000001 -0.000000 0.000000 -0.000001 -0.000000 0.000000 -0.000001 -0.000000 0.000000 -0.000001 -0.000000 0.000000 -0.000001 -0.000000 0.000000 -0.000001 -0.000000 0.000000 -0.000001 -0.954760 8.031868 -0.512384 13.740888 -47.168737 11.278961 -27.318445 -112.822847 -15.331367 37.219002 31.191555 57.594109 -45.452365 -11.082872 -29.015583 -0.545552 4.559623 10.488112 0.000002 -0.000001 -0.000001 2.326641 -3.324972 -48.149900 -11.381160 -5.302322 -29.612022 0.000000 0.000000 -0.000000 -9.775135 -10.720364 -53.341431 -12.083929 -4.655192 -31.782308 -0.000000 0.000000 -0.000001 -8.748863 -7.485893 -45.029655 -13.839834 -6.000943 -58.311613 0.000001 0.000001 0.000000 -16.998497 -15.630632 -63.432254 -6.093219 -3.597882 -35.760517 0.000001 0.000000 0.000001 -0.000000 -0.000001 -0.000000 3.828883 21.676109 -8.298556 -80.969939 27.150577 43.002475 -0.093200 22.118581 0.147401 16.100952 -4.486508 12.415795 -38.730523 9.730983 18.915777 -2.253888 -4.005593 -7.547910 -0.000000 -0.000001 -0.000000 1.938529 -0.858894 -31.807812 -1.946850 5.498691 7.598709 -0.000001 -0.000001 -0.000001 0.590035 -6.586901 -30.425433 -4.982234 4.971086 13.515542 -0.000001 0.000000 -0.000003 -5.751275 -16.488176 -20.942075 -3.721885 5.834454 18.337552 -0.000000 -0.000001 -0.000002 3.801382 -2.822989 7.148747 -2.717681 0.359728 18.528818 0.000000 -0.000002 0.000000 -0.000003 -0.000002 -0.000003 0.000000 -0.000000 0.000000 0.000000 -0.000000 0.000000 0.000000 -0.000000 0.000000 0.000000 -0.000000 0.000000 0.000000 -0.000000 0.000000 0.000000 -0.000000 0.000000 0.000000 -0.000000 0.000000 0.000000 -0.000000 0.000000 -0.000000 -0.000001 0.000000 0.000000 -0.000001 -0.000001 
-1.571731 91.025909 5.347276 87.901242 16.377378 5.399849 -0.000000 -6.467573 -0.000001 -12.299093 -13.925065 9.932501 24.976933 4.712115 -0.480906 12.671043 -6.492938 -21.777676 -0.000002 -0.000000 -0.000000 0.000001 0.000000 0.000001 -0.000000 0.000000 -0.000002 -6.843851 -55.497606 -16.330735 9.960014 0.568251 0.315854 12.271918 31.521559 22.653063 -0.000001 0.000000 0.000000 0.000001 0.000000 -0.000001 0.000000 -0.000001 0.000000 2.384669 -0.120882 -3.319979 5.194860 12.512802 -7.217789 5.194854 12.512795 -7.217781 -14.001813 -2.230701 -7.110231 1.358266 -28.274085 -3.435007 0.000001 0.000001 -0.000000 0.000001 0.000001 -0.000000 0.000001 0.000001 -0.000000 0.000001 0.000001 -0.000000 0.000001 0.000001 -0.000000 0.000001 0.000001 -0.000000 0.000001 0.000001 -0.000000 0.000001 0.000001 -0.000000 0.000001 0.000001 -0.000000 0.000001 0.000001 -0.000000 0.000001 0.000001 -0.000000 0.000001 0.000001 -0.000000 0.000001 0.000001 -0.000000 0.000001 0.000001 -0.000000 0.000001 0.000001 -0.000000 0.000001 0.000001 -0.000000 0.000001 0.000001 -0.000000 0.000001 0.000001 -0.000000 0.000001 0.000001 -0.000000 -0.964030 8.078124 -0.528206 13.812224 -47.467093 11.413902 -27.538518 -112.637018 -15.502672 37.210290 31.081893 57.515869 -45.527879 -11.217946 -29.060805 -0.580468 4.485373 10.516398 0.000001 -0.000003 -0.000001 2.257239 -3.321896 -47.967548 -11.364957 -5.295717 -29.536385 0.000000 -0.000001 0.000000 -9.776313 -10.692528 -53.099728 -12.085132 -4.655507 -31.786246 -0.000001 -0.000000 -0.000002 -8.768823 -7.438504 -44.948696 -13.841549 -6.001370 -58.318874 0.000001 0.000000 0.000000 -16.986691 -15.631842 -63.160672 -6.085856 -3.591657 -35.731264 -0.000003 0.000000 0.000001 -0.000000 0.000001 -0.000000 3.867155 21.852219 -8.354840 -80.959830 27.116850 43.190834 -0.094179 22.394040 0.147672 15.867798 -4.416163 12.659334 -38.611251 9.540351 19.182482 -2.240606 -4.036623 -7.540082 -0.000000 -0.000000 0.000001 1.908136 -0.977734 -31.940990 -1.935090 5.477395 7.463787 -0.000000 0.000001 -0.000002 0.596353 -6.624496 -30.509533 -4.988661 4.974840 13.538192 -0.000001 0.000006 -0.000001 -5.713860 -16.337795 -20.642302 -3.732657 5.846269 18.381841 0.000000 0.000003 0.000003 3.812655 -2.898276 7.231439 -2.714510 0.354881 18.513930 -0.000001 0.000002 0.000000 -0.000003 0.000001 0.000000 -0.000000 0.000000 -0.000000 -0.000000 0.000000 -0.000000 -0.000000 0.000000 -0.000000 -0.000000 0.000000 -0.000000 -0.000000 0.000000 -0.000000 -0.000000 0.000000 -0.000000 -0.000000 0.000000 -0.000000 -0.000000 0.000000 -0.000000 -0.000000 0.000001 0.000000 -0.000000 -0.000000 -0.000001 
-1.545555 91.026985 5.279633 87.835714 16.502861 5.345343 0.000000 -6.467574 0.000000 -12.157173 -13.845832 10.149949 24.664894 3.922544 -0.513177 12.519575 -6.206447 -22.318949 0.000001 -0.000000 0.000000 -0.000000 -0.000000 0.000000 0.000001 -0.000000 -0.000000 -6.706034 -55.459767 -16.231477 10.050027 0.580395 0.317959 12.060821 31.442820 22.947761 0.000001 -0.000001 -0.000002 -0.000001 -0.000002 0.000001 0.000000 0.000001 -0.000000 2.387684 -0.110471 -3.299134 5.199926 12.533867 -7.180047 5.199908 12.533862 -7.180044 -14.056924 -2.234070 -7.075660 1.342319 -28.280455 -3.466635 -0.000000 0.000000 0.000002 -0.000000 0.000000 0.000002 -0.000000 0.000000 0.000002 -0.000000 0.000000 0.000002 -0.000000 0.000000 0.000002 -0.000000 0.000000 0.000002 -0.000000 0.000000 0.000002 -0.000000 0.000000 0.000002 -0.000000 0.000000 0.000002 -0.000000 0.000000 0.000002 -0.000000 0.000000 0.000002 -0.000000 0.000000 0.000002 -0.000000 0.000000 0.000002 -0.000000 0.000000 0.000002 -0.000000 0.000000 0.000002 -0.000000 0.000000 0.000002 -0.000000 0.000000 0.000002 -0.000000 0.000000 0.000002 -0.000000 0.000000 0.000002 -0.973357 8.134298 -0.550698 13.871140 -47.822089 11.530018 -27.792844 -112.438308 -15.708650 37.222434 30.966421 57.413074 -45.586079 -11.317100 -29.099908 -0.613920 4.413969 10.543491 0.000001 0.000000 -0.000000 2.193974 -3.325012 -47.819824 -11.348173 -5.288807 -29.458059 0.000001 0.000000 0.000001 -9.771153 -10.665538 -52.867717 -12.081654 -4.654622 -31.774911 0.000002 0.000000 0.000000 -8.788252 -7.390934 -44.861164 -13.838637 -6.000632 -58.306456 0.000001 0.000000 0.000001 -16.977200 -15.633613 -62.931280 -6.079429 -3.586194 -35.705726 -0.000001 0.000000 -0.000001 0.000000 0.000001 -0.000000 3.911042 22.045291 -8.424388 -80.980191 27.062244 43.388620 -0.095145 22.669084 0.147846 15.659938 -4.363104 12.875407 -38.497770 9.426231 19.302772 -2.227344 -4.067656 -7.532272 -0.000003 -0.000000 0.000001 1.865926 -1.099576 -32.034994 -1.911357 5.442992 7.273260 -0.000001 -0.000001 0.000001 0.606024 -6.673901 -30.656816 -4.996502 4.979379 13.565290 0.000001 0.000002 -0.000001 -5.697135 -16.255428 -20.404024 -3.743160 5.857745 18.424907 0.000000 -0.000001 -0.000001 3.821283 -2.970123 7.272772 -2.701810 0.334785 18.453752 -0.000000 -0.000002 0.000001 -0.000002 -0.000001 0.000003 -0.000000 0.000001 -0.000001 -0.000000 0.000001 -0.000001 -0.000000 0.000001 -0.000001 -0.000000 0.000001 -0.000001 -0.000000 0.000001 -0.000001 -0.000000 0.000001 -0.000001 -0.000000 0.000001 -0.000001 -0.000000 0.000001 -0.000001 0.000000 0.000000 -0.000000 0.000000 -0.000001 0.000000 
